<svg width="20" height="13" viewBox="0 0 20 13" fill="none" xmlns="http://www.w3.org/2000/svg">
<path d="M10.0005 1.84332C12.439 1.79708 14.878 1.90492 17.3005 2.16608C17.3838 2.18805 17.4596 2.22921 17.5208 2.28567C17.5821 2.34214 17.6267 2.41205 17.6505 2.48883C17.8997 3.79777 18.0169 5.12519 18.0005 6.45407C18.0169 7.78295 17.8997 9.11038 17.6505 10.4193C17.6267 10.4961 17.5821 10.566 17.5208 10.6225C17.4596 10.6789 17.3838 10.7201 17.3005 10.7421C14.878 11.0032 12.439 11.1111 10.0005 11.0648C7.56205 11.1111 5.12301 11.0032 2.70052 10.7421C2.61727 10.7201 2.54145 10.6789 2.48022 10.6225C2.41898 10.566 2.37435 10.4961 2.35052 10.4193C2.10129 9.11038 1.98413 7.78295 2.00052 6.45407C1.98413 5.12519 2.10129 3.79777 2.35052 2.48883C2.37435 2.41205 2.41898 2.34214 2.48022 2.28567C2.54145 2.22921 2.61727 2.18805 2.70052 2.16608C5.12301 1.90492 7.56205 1.79708 10.0005 1.84332ZM10.0005 -0.000976562C10.0005 -0.000976562 3.75052 -0.000976562 2.19052 0.386326C1.76641 0.49178 1.37974 0.698021 1.06913 0.984443C0.758531 1.27087 0.534878 1.62744 0.420523 2.01853C0.130881 3.48174 -0.00973126 4.96672 0.00052278 6.45407C-0.00973126 7.94143 0.130881 9.42641 0.420523 10.8896C0.534878 11.2807 0.758531 11.6373 1.06913 11.9237C1.37974 12.2101 1.76641 12.4164 2.19052 12.5218C3.75052 12.9091 10.0005 12.9091 10.0005 12.9091C10.0005 12.9091 16.2505 12.9091 17.8105 12.5218C18.2346 12.4164 18.6213 12.2101 18.9319 11.9237C19.2425 11.6373 19.4662 11.2807 19.5805 10.8896C19.8702 9.42641 20.0108 7.94143 20.0005 6.45407C20.0108 4.96672 19.8702 3.48174 19.5805 2.01853C19.4662 1.62744 19.2425 1.27087 18.9319 0.984443C18.6213 0.698021 18.2346 0.49178 17.8105 0.386326C16.2505 -0.000976562 10.0005 -0.000976562 10.0005 -0.000976562Z" fill="white"/>
<path d="M8.00098 3.68762V9.22052L13.001 6.45407L8.00098 3.68762Z" fill="white"/>
</svg>
