<svg width="20" height="19" viewBox="0 0 20 19" fill="currentColor" xmlns="http://www.w3.org/2000/svg">
<rect x="1" y="0.999939" width="18" height="16.443" rx="2" stroke="white" stroke-width="2"/>
<path d="M13 9.22174C13 10.6319 11.7347 11.9103 10 11.9103C8.26529 11.9103 7 10.6319 7 9.22174C7 7.81163 8.26529 6.53314 10 6.53314C11.7347 6.53314 13 7.81163 13 9.22174Z" stroke="white" stroke-width="2"/>
<mask id="path-3-inside-1_306_5008" fill="white">
<ellipse cx="15.5" cy="4.15051" rx="1.5" ry="1.38415"/>
</mask>
<ellipse cx="15.5" cy="4.15051" rx="1.5" ry="1.38415" fill="white"/>
<path d="M15 4.15051C15 3.92584 15.1026 3.75331 15.2043 3.65941C15.3034 3.56802 15.413 3.53466 15.5 3.53466V7.53466C17.2786 7.53466 19 6.16784 19 4.15051H15ZM15.5 3.53466C15.587 3.53466 15.6966 3.56802 15.7957 3.65941C15.8974 3.75331 16 3.92584 16 4.15051H12C12 6.16784 13.7214 7.53466 15.5 7.53466V3.53466ZM16 4.15051C16 4.37517 15.8974 4.5477 15.7957 4.6416C15.6966 4.733 15.587 4.76636 15.5 4.76636V0.766357C13.7214 0.766357 12 2.13317 12 4.15051H16ZM15.5 4.76636C15.413 4.76636 15.3034 4.733 15.2043 4.6416C15.1026 4.5477 15 4.37517 15 4.15051H19C19 2.13317 17.2786 0.766357 15.5 0.766357V4.76636Z" fill="white" mask="url(#path-3-inside-1_306_5008)"/>
</svg>
